<svg width="56" height="51" viewBox="0 0 56 51" fill="none" xmlns="http://www.w3.org/2000/svg">
<path d="M16.688 31.6183C11.9326 28.7333 11.9326 21.2683 16.688 18.3833L45.4011 0.963316C50.0181 -1.83918 55.6995 1.81082 55.6995 7.58332V42.4183C55.6995 48.1933 50.0207 51.8408 45.4011 49.0383L16.688 31.6183ZM0.482001 7.50082C0.482001 7.00354 0.692272 6.52662 1.06656 6.17499C1.44085 5.82336 1.94849 5.62582 2.47781 5.62582C3.00713 5.62582 3.51478 5.82336 3.88907 6.17499C4.26335 6.52662 4.47362 7.00354 4.47362 7.50082V42.5008C4.47362 42.9981 4.26335 43.475 3.88907 43.8266C3.51478 44.1783 3.00713 44.3758 2.47781 44.3758C1.94849 44.3758 1.44085 44.1783 1.06656 43.8266C0.692272 43.475 0.482001 42.9981 0.482001 42.5008V7.50082Z" fill="white"/>
</svg>
