<svg width="56" height="51" viewBox="0 0 56 51" fill="none" xmlns="http://www.w3.org/2000/svg">
<path d="M39.0459 31.6183C43.8012 28.7333 43.8012 21.2683 39.0459 18.3833L10.3328 0.963316C5.71583 -1.83918 0.0344238 1.81082 0.0344238 7.58332V42.4183C0.0344238 48.1933 5.71317 51.8408 10.3328 49.0383L39.0459 31.6183ZM55.2519 7.50082C55.2519 7.00354 55.0416 6.52662 54.6673 6.17499C54.293 5.82336 53.7854 5.62582 53.2561 5.62582C52.7268 5.62582 52.2191 5.82336 51.8448 6.17499C51.4705 6.52662 51.2603 7.00354 51.2603 7.50082V42.5008C51.2603 42.9981 51.4705 43.475 51.8448 43.8266C52.2191 44.1783 52.7268 44.3758 53.2561 44.3758C53.7854 44.3758 54.293 44.1783 54.6673 43.8266C55.0416 43.475 55.2519 42.9981 55.2519 42.5008V7.50082Z" fill="white"/>
</svg>
